# xmcd
#
# Track frame offsets:
#	150
#	22987
#	54233
#	71181
#	88908
#	114842
#	133406
#	159013
#	177745
#	197157
#	214863
#
# Disc length: 3132 seconds
#
# Revision: 0
# Processed by: cddbd v1.5.2PL0 Copyright (c) Steve Scherf et al.
# Submitted via: dBpowerAMP V4.0
#
DISCID=9c0c3a0b
DTITLE=Muse - The Resistance
DYEAR=1900
DGENRE=
TTITLE0=Uprising
TTITLE1=Resistance
TTITLE2=Undisclosed Desires
TTITLE3=United States Of Eurasia
TTITLE4=Guiding Light
TTITLE5=Unnatural Selection
TTITLE6=MK Ultra
TTITLE7=I Belong To You
TTITLE8=Exogenesis - Part 1
TTITLE9=Exogenesis - Part 2
TTITLE10=Exogenesis - Part 3
EXTD=
EXTT0=
EXTT1=
EXTT2=
EXTT3=
EXTT4=
EXTT5=
EXTT6=
EXTT7=
EXTT8=
EXTT9=
EXTT10=
PLAYORDER=
